HIERARCHY
ROOT Pelvis
{
	OFFSET 0.000000 0.000000 0.000000
	CHANNELS 6 Xposition Yposition Zposition Zrotation Yrotation Xrotation 
	JOINT Left_hip
	{
		OFFSET 0.067986 -0.089946 -0.007639
		CHANNELS 3 Zrotation Yrotation Xrotation
		JOINT Left_knee
		{
			OFFSET 0.036308 -0.388288 -0.004016
			CHANNELS 3 Zrotation Yrotation Xrotation
			JOINT Left_ankle
			{
				OFFSET -0.012264 -0.413250 -0.042878
				CHANNELS 3 Zrotation Yrotation Xrotation
				JOINT Left_foot
				{
					OFFSET 0.024043 -0.058563 0.118570
					CHANNELS 3 Zrotation Yrotation Xrotation
					End Site
					{
						OFFSET 0.000000 0.000000 0.000000
					}
				}
			}
		}
	}
	JOINT Right_hip
	{
		OFFSET -0.065648 -0.089374 -0.003858
		CHANNELS 3 Zrotation Yrotation Xrotation
		JOINT Right_knee
		{
			OFFSET -0.042132 -0.395021 -0.006361
			CHANNELS 3 Zrotation Yrotation Xrotation
			JOINT Right_ankle
			{
				OFFSET 0.014805 -0.413264 -0.041054
				CHANNELS 3 Zrotation Yrotation Xrotation
				JOINT Right_foot
				{
					OFFSET -0.021758 -0.049013 0.121832
					CHANNELS 3 Zrotation Yrotation Xrotation
					End Site
					{
						OFFSET 0.000000 0.000000 0.000000
					}
				}
			}
		}
	}
	JOINT Spine1
	{
		OFFSET -0.002755 0.104406 -0.022277
		CHANNELS 3 Zrotation Yrotation Xrotation
		JOINT Spine2
		{
			OFFSET 0.004136 0.129393 -0.002186
			CHANNELS 3 Zrotation Yrotation Xrotation
			JOINT Spine3
			{
				OFFSET 0.001906 0.049304 0.025578
				CHANNELS 3 Zrotation Yrotation Xrotation
				JOINT Neck
				{
					OFFSET -0.004620 0.210958 -0.044063
					CHANNELS 3 Zrotation Yrotation Xrotation
					JOINT Head
					{
						OFFSET 0.003833 0.067393 0.052435
						CHANNELS 3 Zrotation Yrotation Xrotation
						End Site
						{
							OFFSET 0.000000 0.000000 0.000000
						}
					}
				}
				JOINT Left_collar
				{
					OFFSET 0.070771 0.116689 -0.037192
					CHANNELS 3 Zrotation Yrotation Xrotation
					JOINT Left_shoulder
					{
						OFFSET 0.080652 0.031596 -0.005617
						CHANNELS 3 Zrotation Yrotation Xrotation
						JOINT Left_elbow
						{
							OFFSET 0.262654 -0.015020 -0.027939
							CHANNELS 3 Zrotation Yrotation Xrotation
							JOINT Left_wrist
							{
								OFFSET 0.250438 0.010062 -0.000990
								CHANNELS 3 Zrotation Yrotation Xrotation
								JOINT Left_palm
								{
									OFFSET 0.081198 -0.010037 -0.013706
									CHANNELS 3 Zrotation Yrotation Xrotation
									End Site
									{
										OFFSET 0.000000 0.000000 0.000000
									}
								}
							}
						}
					}
				}
				JOINT Right_collar
				{
					OFFSET -0.072972 0.115556 -0.040762
					CHANNELS 3 Zrotation Yrotation Xrotation
					JOINT Right_shoulder
					{
						OFFSET -0.082917 0.031841 -0.006673
						CHANNELS 3 Zrotation Yrotation Xrotation
						JOINT Right_elbow
						{
							OFFSET -0.252882 -0.013790 -0.020410
							CHANNELS 3 Zrotation Yrotation Xrotation
							JOINT Right_wrist
							{
								OFFSET -0.255570 0.009163 -0.005138
								CHANNELS 3 Zrotation Yrotation Xrotation
								JOINT Right_palm
								{
									OFFSET -0.080804 -0.007282 -0.010415
									CHANNELS 3 Zrotation Yrotation Xrotation
									End Site
									{
										OFFSET 0.000000 0.000000 0.000000
									}
								}
							}
						}
					}
				}
			}
		}
	}
}
MOTION
Frames: 5
Frame Time: 0.100000
0.000000 0.000000 0.000000 174.390043 26.204843 -13.566870 8.184501 5.563144 3.237587 -2.592640 -19.066539 -2.858402 -5.697574 14.540606 -3.165932 3.023084 -1.005312 -5.377666 -5.733384 -5.059017 3.284289 3.665481 13.001977 1.140950 6.109506 -14.132929 -6.991637 -0.778609 5.022582 4.615467 1.180077 1.486928 1.978247 1.140405 -3.692066 0.383199 1.389955 1.124409 1.757854 -4.697413 1.054402 11.297290 6.005976 2.605886 -9.016285 -1.877409 3.354585 -9.149046 2.711084 -2.544158 -15.949893 1.931779 -5.051873 -6.110758 -0.082693 -7.261407 25.889443 -6.287010 -7.913180 -7.232297 0.974041 -1.719649 -3.780649 -1.342650 -5.878991 -20.623572 -3.089069 8.296846 -2.370728 2.448540 6.335277 26.275373 10.614777 7.693602 -6.271253 
-0.000162 -0.000007 0.000158 174.398253 26.275752 -13.644559 8.172359 5.547147 3.321676 -2.618737 -19.107043 -2.836188 -5.715984 14.533716 -3.188691 3.058653 -1.009198 -5.387977 -5.776402 -5.069942 3.401219 3.670425 12.989503 1.148470 6.131322 -14.152321 -7.019428 -0.830034 5.018775 4.563638 1.195051 1.473187 1.976697 1.138607 -3.715780 0.319645 1.394193 1.099732 1.773287 -4.658661 0.988354 11.251693 6.025318 2.544488 -9.045447 -1.880127 3.355867 -9.170263 2.756854 -2.488994 -16.022900 1.957030 -4.984372 -6.176153 -0.365869 -7.317602 25.989209 -6.243192 -7.872223 -7.139211 0.959638 -1.689884 -3.831021 -1.335201 -5.927636 -20.590736 -3.060559 8.354987 -2.246026 2.798561 6.312919 26.432493 10.525271 7.659579 -6.218569 
-0.000121 0.000061 -0.000043 174.419975 26.253354 -13.741297 8.155410 5.550009 3.324928 -2.678881 -19.150804 -2.624172 -5.669863 14.575579 -3.262065 3.004830 -1.017650 -5.407721 -5.805302 -5.080385 3.448311 3.690097 13.061499 1.244444 6.128655 -14.164131 -7.032275 -0.805219 5.028200 4.504976 1.165000 1.496240 2.047267 1.149685 -3.696109 0.408172 1.416551 1.113116 1.789269 -4.599776 0.976126 11.098120 6.089445 2.532972 -9.279016 -1.849139 3.312190 -9.120236 2.871425 -2.307462 -16.042264 1.923636 -5.044422 -6.056910 -0.134024 -7.309834 26.069510 -6.258586 -7.901088 -7.226626 0.938266 -1.640680 -3.771123 -1.419375 -6.046218 -20.696388 -3.110425 8.328989 -2.279241 2.465528 6.331832 26.454833 10.580438 7.661036 -6.256505 
-0.000039 0.000245 -0.001095 174.411856 26.328433 -13.770993 8.120326 5.497590 3.178616 -2.755345 -19.155798 -2.449904 -5.643762 14.535123 -3.288658 3.031998 -0.978268 -5.365749 -5.845596 -5.087685 3.380508 3.711447 12.985221 1.328651 6.190470 -14.155172 -7.040758 -0.904540 5.014720 4.477401 1.095172 1.530125 2.207931 1.174405 -3.697162 0.439348 1.445886 1.092356 1.789283 -4.615869 0.961163 11.004569 6.160097 2.493892 -9.348593 -1.947607 3.339229 -9.055393 2.938108 -2.207207 -15.980996 2.023761 -5.267071 -5.973552 -0.073466 -7.387196 26.104541 -6.292660 -7.929119 -7.292596 1.116438 -1.720015 -3.774677 -1.397690 -6.316131 -20.672080 -3.388587 9.211457 -2.525517 2.453922 6.482802 26.152056 10.657858 7.631590 -6.255970 
-0.000586 0.000537 -0.003511 174.444695 26.550708 -13.691043 7.897080 5.234949 2.606266 -2.972755 -18.874179 -1.864046 -5.537424 14.230362 -3.372095 3.291198 -0.681763 -5.262341 -6.019083 -5.051967 3.148659 3.698488 12.499400 1.466869 6.530002 -13.914992 -7.083734 -1.645747 4.876403 4.399239 0.915025 1.599122 2.559853 1.210892 -3.763182 0.485749 1.455035 1.003425 1.736500 -4.677944 0.995545 10.675193 6.208639 2.561028 -9.303334 -2.697187 3.845684 -8.970978 2.391124 -2.067956 -15.699244 3.925077 -7.940472 -6.428588 -0.194413 -7.525482 25.790794 -6.651871 -8.094898 -7.445901 2.006878 -2.323745 -4.009811 -0.764177 -6.781761 -20.561158 -5.517764 14.103163 -4.601792 2.733030 6.930735 24.485337 11.084604 7.594723 -6.174108 
